<?xml version="1.0" standalone="no"?><!DOCTYPE svg PUBLIC "-//W3C//DTD SVG 1.1//EN" "http://www.w3.org/Graphics/SVG/1.1/DTD/svg11.dtd"><svg t="1744334177494" class="icon" viewBox="0 0 1024 1024" version="1.1" xmlns="http://www.w3.org/2000/svg" p-id="8272" xmlns:xlink="http://www.w3.org/1999/xlink" width="200" height="200"><path d="M681.009 646.493L504.713 755.536c-73.544-45.113-172.334-109.044-172.334-109.044L95.92 880.054l144.824 3.507 3.722 114.793L476.38 767.827c32.337 31.014 72.309 0.603 71.24 1.515L787.115 1012l3.609-128.44 137.356-3.507-247.071-233.56z m0 0" fill="#197AFF" p-id="8273"></path><path d="M644.833 770.344l77.783 12.824c2.415 0.425 5.196 0.664 8.037 0.664a49.141 49.141 0 0 0 29.152-9.526c11.067-8.139 18.632-20.788 19.974-35.245l11.394-75.131c2.596-16.606 13.3-30.227 27.852-36.867l68.788-34.459c11.81-5.893 20.737-16.329 24.826-28.861 1.541-4.56 2.422-9.818 2.422-15.28a49.138 49.138 0 0 0-5.645-22.949l-36.09-69.787c-3.414-6.464-5.425-14.128-5.425-22.257a48.196 48.196 0 0 1 5.554-22.513l36.099-69.787c3.47-6.582 5.508-14.394 5.508-22.676a49.1 49.1 0 0 0-2.524-15.628c-3.988-12.183-12.914-22.626-24.724-28.518l-70.437-35.275c-14.482-7.371-24.643-21.432-26.454-38.003l-11.482-75.923c-2.242-14.461-10.468-26.654-22.027-34.149-5.779-4.335-15.858-7.873-26.757-7.873-2.841 0-5.621 0.236-8.333 0.701l-77.491 12.793c-2.375 0.41-5.103 0.645-7.888 0.645-13.474 0-25.656-5.503-34.431-14.383l-55.397-56.155C538.171 17.636 525.736 12 511.987 12c-13.739 0.005-26.168 5.641-35.095 14.722L421.49 82.866c-8.78 8.892-20.962 14.394-34.431 14.394-2.79 0-5.518-0.229-8.18-0.691l-77.496-12.793c-2.415-0.414-5.196-0.655-8.032-0.655a49.13 49.13 0 0 0-29.157 9.532c-11.077 8.139-18.627 20.788-19.974 35.238l-11.4 75.127c-2.591 16.601-13.284 30.227-27.842 36.862l-68.793 34.465c-11.81 5.892-20.733 16.335-24.823 28.861-1.54 4.571-2.426 9.823-2.426 15.29a49.065 49.065 0 0 0 5.645 22.938l36.088 69.791c3.415 6.46 5.421 14.119 5.421 22.247a48.142 48.142 0 0 1-5.548 22.519l-36.094 69.79c-3.477 6.584-5.513 14.39-5.513 22.677a49.34 49.34 0 0 0 2.524 15.634c3.988 12.183 12.914 22.62 24.719 28.513l70.447 35.264c14.48 7.382 24.636 21.438 26.449 38.013l11.482 75.923c2.247 14.461 10.473 26.649 22.036 34.149 5.775 4.335 15.854 7.863 26.757 7.863a48.67 48.67 0 0 0 8.324-0.697l77.496-12.782c2.369-0.414 5.108-0.65 7.893-0.65 13.467 0 25.646 5.504 34.42 14.385l55.402 56.155c8.937 9.091 21.372 14.722 35.111 14.722 13.744 0 26.174-5.631 35.111-14.718l55.407-56.154c8.775-8.886 20.953-14.385 34.42-14.385 2.79 0 5.524 0.236 8.18 0.687l-0.28-0.036z m0 0" fill="#DDBA93" p-id="8274"></path><path d="M511.984 718.474c-161.113 0-292.209-131.167-292.209-292.362 0-161.222 131.091-292.394 292.209-292.394 161.144 0 292.24 131.172 292.24 292.394-0.005 161.195-131.1 292.362-292.24 292.362z m0 0" fill="#B76B19" p-id="8275"></path><path d="M511.995 657.452c-127.497 0-231.232-103.791-231.232-231.34 0-127.585 103.735-231.371 231.232-231.371 127.503 0 231.243 103.797 231.243 231.371 0 127.548-103.741 231.34-231.243 231.34z m0 0" fill="#DDBA93" p-id="8276"></path><path d="M515.743 571.719c-25.212 0-46.103-6.815-62.675-20.444-16.574-13.629-25.5-32.855-26.778-57.684v-0.192h54.325v0.192c1.278 8.576 4.479 15.231 9.598 19.964 5.117 4.737 11.71 7.103 19.771 7.103 9.983 0 17.692-2.75 23.133-8.255 5.437-5.501 8.157-13.371 8.157-23.611v-7.102c0-10.622-2.206-18.813-6.622-24.571-4.416-5.759-10.719-8.639-18.909-8.639h-23.61v-50.677h23.61c6.652 0 11.806-2.525 15.453-7.582 3.647-5.054 5.472-12.123 5.472-21.211v-5.375c0-8.573-2.016-15.195-6.047-19.868-4.032-4.67-9.694-7.007-16.988-7.007-7.17 0-13.28 2.688-18.334 8.063-5.056 5.375-8.479 12.99-10.269 22.843v0.192h-54.133v-0.192c2.304-25.978 11.325-46.134 27.066-60.468 15.741-14.331 34.937-21.499 57.589-21.499 24.697 0 43.797 5.983 57.301 17.948 13.5 11.968 20.25 28.89 20.25 50.774v9.022c0 13.82-3.262 25.884-9.79 36.185-6.526 10.302-15.806 17.948-27.834 22.939 13.437 3.2 23.834 10.653 31.194 22.363 7.358 11.709 11.037 26.586 11.037 44.631v9.022c0 23.163-7.168 41.146-21.5 53.94-14.334 12.798-34.488 19.196-60.467 19.196z" fill="#B76B19" p-id="8277"></path></svg>